<svg height="471pt" viewBox="0 -20 471.88 471" width="471pt" xmlns="http://www.w3.org/2000/svg"><path d="m259.898438 118.699219c-.335938-1.429688-.507813-2.898438-.507813-4.371094v-94.957031c-.003906-10.457032 8.472656-18.933594 18.929687-18.929688h174.640626c10.453124 0 18.925781 8.476563 18.917968 18.929688v94.957031c0 10.453125-8.46875 18.921875-18.917968 18.921875h-112.820313l-3.300781 2.941406-2.078125 1.847656-45.089844 40.132813v-44.921875h-11.351563c-8.769531 0-16.390624-6.019531-18.421874-14.550781zm0 0" fill="#6fe3ff"/><path d="m235.089844 118.699219h24.808594c2.03125 8.53125 9.652343 14.550781 18.421874 14.550781h11.351563v44.921875l45.089844-40.132813 2.078125-1.847656v163.039063c0 16.566406-13.429688 30-30 30h-276.839844c-16.570312 0-30-13.433594-30-30v-150.53125c0-16.566407 13.429688-30 30-30zm44 111.929687v-16.660156c0-11.042969-8.953125-20-20-20s-20 8.957031-20 20v16.660156zm-70.667969 31.929688h-80c0 22.09375 17.90625 40 40 40 22.089844 0 40-17.90625 40-40zm-110.660156-31.929688v-16.660156c0-11.042969-8.957031-20-20-20-11.046875 0-20 8.957031-20 20v16.660156zm0 0" fill="#f8ec7d"/><path d="m279.089844 213.96875v16.660156h-40v-16.660156c0-11.042969 8.953125-20 20-20s20 8.957031 20 20zm0 0" fill="#e48e66"/><path d="m128.421875 262.558594h80c0 22.09375-17.910156 40-40 40-22.09375 0-40-17.90625-40-40zm0 0" fill="#e48e66"/><path d="m97.761719 213.96875v16.660156h-40v-16.660156c0-11.042969 8.953125-20 20-20 11.042969 0 20 8.957031 20 20zm0 0" fill="#e48e66"/><path d="m168 84.769531c-3.3125 0-6-2.6875-6-6v-29.328125c0-3.316406 2.6875-6 6-6s6 2.683594 6 6v29.328125c0 3.3125-2.6875 6-6 6zm0 0" fill="#6fe3ff"/><path d="m268.421875 371.441406h-200c-3.316406 0-6-2.6875-6-6 0-3.316406 2.683594-6 6-6h200c3.3125 0 6 2.683594 6 6 0 3.3125-2.6875 6-6 6zm0 0" fill="#6fe3ff"/><path d="m268.421875 401.441406h-200c-3.316406 0-6-2.6875-6-6 0-3.316406 2.683594-6 6-6h200c3.3125 0 6 2.683594 6 6 0 3.3125-2.6875 6-6 6zm0 0" fill="#6fe3ff"/><path d="m268.421875 431.441406h-200c-3.316406 0-6-2.6875-6-6 0-3.316406 2.683594-6 6-6h200c3.3125 0 6 2.683594 6 6 0 3.3125-2.6875 6-6 6zm0 0" fill="#6fe3ff"/><g fill="#2561a1"><path d="m446.128906 48.941406h-12.980468c-3.3125 0-6-2.6875-6-6 0-3.316406 2.6875-6 6-6h12.980468c3.316406 0 6 2.683594 6 6 0 3.3125-2.683594 6-6 6zm0 0"/><path d="m412.550781 48.941406h-27.152343c-3.3125 0-6-2.6875-6-6 0-3.316406 2.6875-6 6-6h27.152343c3.3125 0 6 2.683594 6 6 0 3.3125-2.6875 6-6 6zm0 0"/><path d="m363.480469 48.941406h-78.351563c-3.3125 0-6-2.6875-6-6 0-3.316406 2.6875-6 6-6h78.351563c3.3125 0 6 2.683594 6 6 0 3.3125-2.6875 6-6 6zm0 0"/><path d="m446.128906 80.941406h-46.269531c-3.3125 0-6-2.6875-6-6 0-3.316406 2.6875-6 6-6h46.269531c3.316406 0 6 2.683594 6 6 0 3.3125-2.683594 6-6 6zm0 0"/><path d="m378.609375 80.941406h-66.519531c-3.3125 0-6-2.6875-6-6 0-3.316406 2.6875-6 6-6h66.519531c3.3125 0 6 2.683594 6 6 0 3.3125-2.6875 6-6 6zm0 0"/><path d="m289.828125 80.941406h-4.699219c-3.3125 0-6-2.6875-6-6 0-3.316406 2.6875-6 6-6h4.699219c3.316406 0 6 2.683594 6 6 0 3.3125-2.683594 6-6 6zm0 0"/><path d="m446.128906 112.941406h-.988281c-3.3125 0-6-2.6875-6-6 0-3.316406 2.6875-6 6-6h.988281c3.316406 0 6 2.683594 6 6 0 3.3125-2.683594 6-6 6zm0 0"/><path d="m423.589844 112.941406h-48.878906c-3.316407 0-6-2.6875-6-6 0-3.316406 2.683593-6 6-6h48.878906c3.3125 0 6 2.683594 6 6 0 3.3125-2.6875 6-6 6zm0 0"/><path d="m352.789062 112.941406h-67.660156c-3.3125 0-6-2.6875-6-6 0-3.316406 2.6875-6 6-6h67.660156c3.316407 0 6 2.683594 6 6 0 3.3125-2.683593 6-6 6zm0 0"/></g><path d="m194 29.441406c0 14.359375-11.640625 26-26 26s-26-11.640625-26-26 11.640625-26 26-26 26 11.640625 26 26zm0 0" fill="#e48e66"/><path d="m235.089844 88.769531v29.929688h-133.328125v-29.929688c0-5.523437 4.476562-10 10-10h113.328125c5.523437 0 10 4.476563 10 10zm0 0" fill="#e48e66"/></svg>