<?xml version="1.0" encoding="UTF-8"?>
<svg width="111px" height="78px" viewBox="0 0 111 78" version="1.1" xmlns="http://www.w3.org/2000/svg" xmlns:xlink="http://www.w3.org/1999/xlink">
    <!-- Generator: Sketch 52.4 (67378) - http://www.bohemiancoding.com/sketch -->
    <title>upload-to-cloud</title>
    <desc>Created with Sketch.</desc>
    <g id="Page-1" stroke="none" stroke-width="1" fill="none" fill-rule="evenodd">
        <g id="Group" transform="translate(-71.000000, -86.000000)" fill="#FFFFFF">
            <g id="upload-to-cloud" transform="translate(71.000000, 86.000000)">
                <path d="M85.6593848,25.6836338 C84.6197834,11.3627733 71.470995,0 55.4577367,0 C39.4403276,0 26.2892751,11.3675753 25.2553339,25.6935809 C10.9348713,27.3310935 0,38.4208337 0,51.7274242 C0,66.2139568 12.9657733,78 28.903184,78 L72.8581365,78 C74.1082997,78 75.1222413,77.0783418 75.1222413,75.9419616 C75.1222413,74.8055813 74.1082997,73.8839231 72.8581365,73.8839231 L28.903184,73.8839231 C15.4627035,73.8835801 4.52820952,63.9442834 4.52820952,51.7274242 C4.52820952,39.9708796 14.6536634,30.2661994 27.5794374,29.6340385 C28.7809224,29.5753845 29.7220352,28.6725916 29.7220352,27.5790872 C29.7220352,27.5382694 29.7209032,27.4981377 29.7182617,27.4573199 C29.7522233,14.5822314 41.285573,4.11607689 55.4577367,4.11607689 C69.6321646,4.11607689 81.167401,14.5839464 81.1972117,27.462122 C81.1953249,27.5019107 81.1938155,27.5437575 81.1938155,27.5749711 C81.1938155,28.6712196 82.1390793,29.5750414 83.3432056,29.6302655 C96.3127524,30.2274396 106.47179,39.9334919 106.47179,51.7270812 C106.47179,58.4246243 103.189593,64.6930664 97.4666911,68.9247365 C96.4965223,69.6419629 96.3501101,70.9381841 97.1391507,71.8197106 C97.9281912,72.70158 99.3541998,72.8346665 100.323991,72.1174401 C107.108759,67.1006284 111,59.6687086 111,51.7267382 C111,38.3793299 100.028148,27.2854737 85.6593848,25.6836338 Z" id="Path"></path>
                <path d="M53,37.0336455 L53,62.9663545 C53,64.0892657 54.1195833,65 55.5,65 C56.8804167,65 58,64.0892657 58,62.9663545 L58,37.0336455 C58,35.9107343 56.8804167,35 55.5,35 C54.1195833,35 53,35.9107343 53,37.0336455 Z" id="Path"></path>
                <path d="M67.7675842,40.9999136 C68.3390588,40.9999136 68.9101614,40.7974804 69.3462085,40.3929593 C70.2179305,39.5835717 70.2179305,38.27121 69.3462085,37.4618225 L56.5784382,25.6070407 C55.7067162,24.7976531 54.2929118,24.7976531 53.4215618,25.6070407 L40.6537915,37.4618225 C39.7820695,38.27121 39.7820695,39.5835717 40.6537915,40.3929593 C41.5255136,41.2023469 42.939318,41.2023469 43.810668,40.3929593 L54.999814,30.0039187 L66.1889599,40.3929593 C66.625007,40.7974804 67.1964816,40.9999136 67.7675842,40.9999136 Z" id="Path"></path>
            </g>
        </g>
    </g>
</svg>